<svg width="32" height="32" viewBox="0 0 24 24" fill="none" xmlns="http://www.w3.org/2000/svg">
  <path d="M21.4117 10.9652V11.3365C21.3509 13.253 20.8648 15.1321 19.9886 16.8377C18.952 18.4507 17.5659 19.8098 15.933 20.8146L15.618 21.0002L15.0555 20.6796L11.8717 18.8402C11.6769 18.7301 11.489 18.608 11.3092 18.4746C11.1507 18.3677 11.0003 18.2493 10.8592 18.1202C10.5306 17.8415 10.2326 17.5285 9.97048 17.1865C9.60377 16.7095 9.30644 16.1831 9.08735 15.6227C8.69313 14.6294 8.51851 13.5624 8.57547 12.4952C8.88787 12.3252 9.23793 12.2362 9.5936 12.2365H9.85235C9.76374 13.166 9.88286 14.1036 10.2011 14.9815C10.6195 16.1502 11.4386 17.1327 12.513 17.7546L15.6067 19.5377L15.843 19.3746C17.0695 18.5366 18.1142 17.4594 18.9142 16.2077C19.6334 14.8097 20.053 13.2771 20.1461 11.7077L18.8355 10.9484C18.9422 10.5125 19.0118 10.0684 19.0436 9.62085L21.4117 10.9652Z" fill="#3880FF"/>
  <path d="M17.7887 4.6875V9.01876C17.7888 9.24231 17.7775 9.46573 17.7549 9.68813C17.7549 9.87938 17.7099 10.0706 17.6762 10.2506C17.5927 10.6723 17.4684 11.0849 17.3049 11.4825C17.0785 12.0422 16.7735 12.5668 16.3993 13.0406C15.7384 13.879 14.9036 14.5641 13.9524 15.0488C13.5743 14.8179 13.279 14.4734 13.1087 14.0644C13.9531 13.672 14.6989 13.0954 15.2912 12.3769C16.0902 11.4334 16.5304 10.2382 16.5343 9.00188V5.4525L16.2756 5.32875C14.9358 4.68548 13.4797 4.32002 11.9949 4.25438C10.4122 4.32759 8.86307 4.73597 7.44993 5.4525V6.96563C7.01929 7.09 6.59972 7.24992 6.19556 7.44376V4.6875L6.51056 4.5075C8.20324 3.60192 10.0772 3.08682 11.9949 3C13.9101 3.08987 15.7805 3.6089 17.4681 4.51875L17.7887 4.6875Z" fill="#3880FF"/>
  <path d="M6.96072 9.88513L3.86696 11.6683C3.86696 11.747 3.86696 11.8426 3.86696 11.9439C3.97461 13.4293 4.38624 14.8767 5.07634 16.1964C5.92862 17.529 7.05169 18.6674 8.3726 19.5376L9.7001 18.7783C10.0248 19.0881 10.3747 19.3703 10.7463 19.622L8.3726 21.0001L8.05197 20.8145C6.42367 19.8053 5.0418 18.4446 4.00759 16.832C3.12969 15.1253 2.64533 13.2436 2.59009 11.3251V10.9595L3.15259 10.6333L6.32509 8.79951C6.51859 8.68826 6.71759 8.58688 6.92134 8.49576C7.09572 8.41701 7.27572 8.34388 7.45572 8.28201C7.86209 8.13842 8.28258 8.03848 8.7101 7.98388C9.30751 7.90511 9.91268 7.90511 10.5101 7.98388C11.5651 8.14423 12.5738 8.52776 13.4689 9.10888C13.4588 9.54012 13.3218 9.95882 13.0751 10.3126C12.3196 9.77681 11.4554 9.41385 10.5438 9.24951C9.31189 9.02876 8.04158 9.25411 6.96072 9.88513Z" fill="#3880FF"/>
</svg>
