<svg width="32" height="32" viewBox="0 0 24 24" fill="none" xmlns="http://www.w3.org/2000/svg">
  <path fill-rule="evenodd" clip-rule="evenodd" d="M21 12C21 16.9706 16.9706 21 12 21C7.02944 21 3 16.9706 3 12C3 7.02944 7.02944 3 12 3C16.9706 3 21 7.02944 21 12ZM17.25 12C17.25 14.8995 14.8995 17.25 12 17.25C9.1005 17.25 6.75 14.8995 6.75 12C6.75 9.1005 9.1005 6.75 12 6.75C14.8995 6.75 17.25 9.1005 17.25 12ZM11.3125 10.3125C10.7602 10.3125 10.3125 10.7602 10.3125 11.3125V12.6875C10.3125 13.2398 10.7602 13.6875 11.3125 13.6875H12.6875C13.2398 13.6875 13.6875 13.2398 13.6875 12.6875V11.3125C13.6875 10.7602 13.2398 10.3125 12.6875 10.3125H11.3125Z" fill="#2D65F8"/>
</svg>
