<svg width="32" height="32" viewBox="0 0 24 24" fill="none" xmlns="http://www.w3.org/2000/svg">
  <path fill-rule="evenodd" clip-rule="evenodd" d="M12 21C16.9706 21 21 16.9706 21 12C21 7.02944 16.9706 3 12 3C7.02944 3 3 7.02944 3 12C3 16.9706 7.02944 21 12 21ZM10.8878 9.30086C11.383 9.17668 12.1074 9.17823 12.603 9.30086C13.0987 9.42349 13.5531 9.66546 13.9228 10.0036C14.2926 10.3418 14.5027 10.7591 14.6523 11.2267C14.7083 11.4017 14.7376 11.5673 14.7466 11.7309H11.1309L16.589 14.2524C16.6941 14.102 16.9213 13.7093 17.0688 13.2429L17.0723 13.2438L17.0822 13.1997C17.0946 13.1588 17.1063 13.1175 17.1172 13.0757L17.1097 13.0709C17.2788 12.2452 17.3271 11.3415 17.0723 10.545C16.7996 9.69244 16.2068 8.64949 15.5326 8.03281C14.8584 7.41613 14.1476 7.07974 13.2437 6.85613C12.3399 6.63251 10.6254 6.79777 9.72231 7.02422L10.8878 9.30086ZM11.8007 14.9449C11.5689 14.9557 11.392 14.964 11.2604 14.9314C10.7041 14.7938 10.3103 14.5668 9.94057 14.2286C9.57084 13.8905 9.27913 13.58 9.14858 12.9076C9.01804 12.2352 9.03986 11.8724 9.14858 11.3947L7.08127 10.3861C7.05345 10.5084 7.02304 10.6294 6.99229 10.7518L6.99229 10.7518C6.80384 11.5017 6.60247 12.303 6.9052 13.7481C7.17794 14.6006 7.5611 15.3113 8.23533 15.928C8.90955 16.5447 9.52275 16.8864 10.4266 17.1101C11.7958 17.3468 12.7155 17.2782 13.5958 16.9419L12.3634 14.9314C12.1475 14.9287 11.961 14.9374 11.8007 14.9449Z" fill="#1896A4"/>
</svg>
