<svg height="512" viewBox="0 0 48 48" width="512" xmlns="http://www.w3.org/2000/svg"><g id="_07-wallet" data-name="07-wallet"><path d="m17 1h14v1a2.006 2.006 0 0 1 -2 2h-10a2.006 2.006 0 0 1 -2-2z" fill="#333940"/><path d="m39 5v38a4 4 0 0 1 -4 4h-22a4 4 0 0 1 -4-4v-38a4 4 0 0 1 4-4h4v1a2.006 2.006 0 0 0 2 2h10a2.006 2.006 0 0 0 2-2v-1h4a4 4 0 0 1 4 4z" fill="#9576f0"/><path d="m39 34.046v-29.046a4 4 0 0 0 -4-4h-4v1a2.006 2.006 0 0 1 -2 2h-10a2.006 2.006 0 0 1 -2-2v-1h-4a33.982 33.982 0 0 0 26 33.046z" fill="#b785f8"/><path d="m35 1h-4v1h4a3 3 0 0 1 3 3v38a3 3 0 0 1 -3 3h-22a3 3 0 0 1 -3-3v-38a3 3 0 0 1 3-3h4v-1h-4a4 4 0 0 0 -4 4v38a4 4 0 0 0 4 4h22a4 4 0 0 0 4-4v-38a4 4 0 0 0 -4-4z" fill="#333940"/><g fill="#23272b"><path d="m29 3h-10a2.006 2.006 0 0 1 -2-2v1a2.006 2.006 0 0 0 2 2h10a2.006 2.006 0 0 0 2-2v-1a2.006 2.006 0 0 1 -2 2z"/><path d="m14.682 46.5a.5.5 0 0 0 .5.5h15a.5.5 0 1 0 0-1h-15a.5.5 0 0 0 -.5.5z"/><path d="m31.682 46.5a.5.5 0 0 0 .5.5h1a.5.5 0 0 0 0-1h-1a.5.5 0 0 0 -.5.5z"/></g><path d="m32 17h-1v-3a1 1 0 0 0 -1.243-.97l-16 4 .005.018a.986.986 0 0 0 -.762.952v14a3 3 0 0 0 3 3h16a3 3 0 0 0 3-3v-12a3 3 0 0 0 -3-3z" fill="#fafcff"/><circle cx="29" cy="26" fill="#be80ff" r="2"/><path d="m30 14v4h-16z" fill="#2b9e66"/><path d="m31 26a2 2 0 1 0 -2 2 2.006 2.006 0 0 0 2-2zm3-6v12a2.006 2.006 0 0 1 -2 2h-16a2.006 2.006 0 0 1 -2-2v-14h18a2.006 2.006 0 0 1 2 2z" fill="#61e6a9"/><path d="m32 18h-18v1h17.1a1.835 1.835 0 0 1 1.9 1.75v10.5a1.835 1.835 0 0 1 -1.9 1.75h-15.2a1.835 1.835 0 0 1 -1.9-1.75v.75a2.006 2.006 0 0 0 2 2h16a2.006 2.006 0 0 0 2-2v-12a2.006 2.006 0 0 0 -2-2z" fill="#5dd39e"/><path d="m32.837 31.952a1.623 1.623 0 0 0 .163-.7v-10.502a1.835 1.835 0 0 0 -1.9-1.75h-14.039c.597 6.951 7.329 12.481 15.776 12.952zm-3.837-7.952a2 2 0 1 1 -2 2 2.006 2.006 0 0 1 2-2z" fill="#91ff93"/><path d="m32 18h-15c0 .338.033.668.061 1h14.039a1.835 1.835 0 0 1 1.9 1.75v10.5a1.623 1.623 0 0 1 -.163.7c.386.021.77.048 1.163.048v-11.998a2.006 2.006 0 0 0 -2-2z" fill="#61e6a9"/><ellipse cx="30.682" cy="20.708" fill="#f6fafd" rx=".825" ry="1.148" transform="matrix(.707 -.707 .707 .707 -5.654 27.773)"/><ellipse cx="28.427" cy="22.208" fill="#f6fafd" rx=".413" ry=".574" transform="matrix(.707 -.707 .707 .707 -7.376 26.618)"/></g></svg>