<svg width="32" height="32" viewBox="0 0 24 24" fill="none" xmlns="http://www.w3.org/2000/svg">
  <path d="M6.1792 13.4407L6.61339 13.2495L12.0029 10.9072L17.8267 13.4407L15.6398 17.9579L10.2901 18.7147L6.26683 14.3728L6.1792 13.4407Z" fill="#133444"/>
  <path d="M16.6158 10.652C15.6558 9.49287 14.2894 8.74001 12.7996 8.54084C12.7678 8.53685 12.7359 8.53287 12.704 8.52889C12.238 8.47312 11.7679 8.47312 11.3019 8.52889C11.27 8.53287 11.2382 8.53685 11.2063 8.54084C9.71251 8.74001 8.35018 9.49287 7.39018 10.652L7.14719 11.0544L6.74487 11.7236L6.45009 12.2135C6.44611 12.2255 6.43814 12.2414 6.43416 12.2534L6.43018 12.2613L7.08346 12.6477L11.2063 15.0896L12.003 15.5596V9.72391L11.2063 10.0864V9.21403L12.003 8.85154L12.7996 9.21403L16.8587 11.0584L16.6158 10.652Z" fill="#C42370"/>
  <path d="M18.006 14.8905C18.006 16.8344 17.0818 18.6508 15.6518 19.8219C15.0901 20.284 14.4448 20.6425 13.7557 20.8736C13.1901 21.0608 12.6005 21.1564 12.007 21.1564C8.6888 21.1564 6 18.2087 6 14.8905C6 14.4005 6.05975 13.9145 6.17527 13.4365L12.003 16.8862L17.8267 13.4405C17.9462 13.9145 18.006 14.4045 18.006 14.8905Z" fill="#1C4D6B"/>
  <path d="M11.3019 8.53307L12.003 8.85175L11.2063 9.21424V8.48926L11.3019 8.53307Z" fill="black"/>
  <path d="M11.2063 10.0864L12.003 9.72388V15.5636L11.2063 15.0895V10.0864Z" fill="black"/>
  <path d="M12.0029 9.72388V15.5636L17.5837 12.2613L12.0029 9.72388Z" fill="#1D4259"/>
  <path d="M12.0029 3V9.724L17.5837 12.2614L12.0029 3Z" fill="#4B6B9A"/>
  <path d="M12.0032 9.72399V15.5597L11.2065 15.0896L6.42642 12.2614L6.41846 12.2574L6.43041 12.2535C6.43439 12.2415 6.44236 12.2256 6.44634 12.2136L7.14344 11.0544L11.2065 9.21411V10.0905L12.0032 9.72399Z" fill="#343535"/>
  <path d="M12.0029 9.72388V15.5636L11.2062 15.0895L6.4261 12.2653L6.42212 12.2613L6.43009 12.2573L11.2062 10.0864L12.0029 9.72388Z" fill="#3E5578"/>
  <path d="M12.0029 3V9.724L6.42212 12.2614L12.0029 3Z" fill="#6DB2D8"/>
  <path d="M9.74438 20.6785C9.82804 20.7143 9.91169 20.7502 9.99534 20.782C9.91169 20.7502 9.82804 20.7183 9.74438 20.6785Z" fill="#335F8A"/>
  <path d="M9.99536 20.7817C10.079 20.8136 10.1666 20.8455 10.2543 20.8734C10.1666 20.8455 10.079 20.8176 9.99536 20.7817Z" fill="#335F8A"/>
  <path d="M10.4734 20.9453C10.5411 20.9652 10.6048 20.9812 10.6726 20.9971C10.6088 20.9812 10.5411 20.9612 10.4734 20.9453Z" fill="#335F8A"/>
  <path d="M6.17925 13.4404L12.003 16.8861C11.9233 17.4119 11.7839 17.9218 11.5847 18.4157C11.1187 19.543 10.1786 20.7341 8.3542 19.8258C6.92017 18.6547 6 16.8343 6 14.8904C6 14.4044 6.05975 13.9145 6.17925 13.4404Z" fill="#6DB2D8"/>
  <path d="M15.6477 19.8257L15.6318 19.8377C15.5999 19.8616 15.572 19.8855 15.5401 19.9094L15.5322 19.9174C15.5003 19.9452 15.4645 19.9691 15.4326 19.993C15.3967 20.0209 15.3609 20.0488 15.321 20.0727C15.2812 20.0966 15.2454 20.1245 15.2095 20.1524C15.1737 20.1803 15.1418 20.1962 15.1099 20.2201L15.09 20.2321C15.0542 20.256 15.0183 20.2759 14.9864 20.2998C14.9825 20.3038 14.9785 20.3038 14.9745 20.3077C14.9386 20.3316 14.9028 20.3516 14.8669 20.3715C14.8311 20.3914 14.7873 20.4193 14.7474 20.4392C14.7076 20.4631 14.6678 20.483 14.6279 20.5029L14.624 20.5069C14.5841 20.5268 14.5443 20.5467 14.5045 20.5667C14.4646 20.5866 14.4248 20.6065 14.381 20.6264C14.3371 20.6463 14.2973 20.6662 14.2575 20.6822C14.1738 20.718 14.0902 20.7539 14.0065 20.7857C13.9229 20.8176 13.8352 20.8495 13.7476 20.8774C13.7118 20.8893 13.6799 20.9013 13.644 20.9092C13.6082 20.9212 13.5644 20.9331 13.5285 20.9451C13.4608 20.965 13.3971 20.9809 13.3293 20.9969C13.3054 21.0048 13.2776 21.0088 13.2537 21.0168L13.2098 21.0248C13.174 21.0327 13.1381 21.0407 13.1023 21.0487C13.0664 21.0566 13.0386 21.0606 13.0027 21.0686C12.9669 21.0765 12.943 21.0805 12.9111 21.0845C12.8792 21.0885 12.8434 21.0965 12.8115 21.1004C12.7956 21.1044 12.7796 21.1044 12.7637 21.1084L12.688 21.1164L12.6442 21.1204C12.6163 21.1243 12.5884 21.1283 12.5605 21.1283C12.5247 21.1323 12.4928 21.1363 12.457 21.1363C12.4291 21.1363 12.4052 21.1403 12.3773 21.1443C12.3494 21.1443 12.3295 21.1482 12.3056 21.1482H12.3016C12.2737 21.1482 12.2459 21.1522 12.222 21.1522C12.1861 21.1522 12.1463 21.1562 12.1104 21.1562C12.0746 21.1562 12.0347 21.1562 11.9949 21.1562C11.9551 21.1562 11.9192 21.1562 11.8794 21.1562C11.8396 21.1562 11.8037 21.1562 11.7678 21.1522C11.74 21.1522 11.7121 21.1482 11.6842 21.1482H11.6802C11.6563 21.1482 11.6324 21.1443 11.6085 21.1443C11.5846 21.1443 11.5567 21.1403 11.5288 21.1363C11.493 21.1323 11.4611 21.1323 11.4253 21.1283C11.3974 21.1243 11.3695 21.1243 11.3416 21.1204L11.3018 21.1164C11.2779 21.1124 11.25 21.1084 11.2261 21.1084C11.2102 21.1084 11.1942 21.1044 11.1783 21.1004C11.1464 21.0965 11.1106 21.0925 11.0787 21.0845C11.0469 21.0805 11.019 21.0726 10.9871 21.0686C10.9552 21.0646 10.9234 21.0566 10.8875 21.0487C10.8556 21.0407 10.8158 21.0327 10.78 21.0248L10.7361 21.0168C10.7122 21.0128 10.6844 21.0048 10.6605 20.9969C10.5927 20.9809 10.529 20.961 10.4613 20.9451L10.3418 20.9092C10.3059 20.8973 10.2741 20.8893 10.2382 20.8774C10.1506 20.8495 10.0669 20.8176 9.9793 20.7857C9.89166 20.7539 9.80801 20.718 9.72834 20.6822C9.68851 20.6623 9.64469 20.6463 9.60486 20.6264C9.56502 20.6065 9.52121 20.5866 9.48137 20.5667C9.44154 20.5467 9.4017 20.5268 9.36187 20.5069L9.35789 20.5029C9.31805 20.483 9.27822 20.4591 9.23839 20.4392C9.19855 20.4193 9.15872 20.3954 9.11888 20.3715C9.07905 20.3476 9.04718 20.3277 9.01133 20.3077L8.99938 20.2998C8.96353 20.2799 8.92768 20.256 8.89581 20.2321L8.87589 20.2201C8.84403 20.2002 8.80818 20.1763 8.77631 20.1524C8.74444 20.1285 8.70062 20.1006 8.66477 20.0727C8.62892 20.0448 8.59307 20.0209 8.55324 19.993C8.51739 19.9652 8.48552 19.9413 8.45365 19.9174L8.44569 19.9094C8.41382 19.8855 8.38594 19.8616 8.35407 19.8377L8.33813 19.8257C10.1586 20.734 11.1026 19.5389 11.5687 18.4156C11.7678 17.9257 11.9073 17.4118 11.9869 16.886C12.0666 17.4118 12.206 17.9217 12.4052 18.4156C12.8872 19.5389 13.8273 20.73 15.6477 19.8257Z" fill="#529BBA"/>
  <path d="M13.3293 20.9971C13.3971 20.9812 13.4648 20.9612 13.5285 20.9453C13.4648 20.9652 13.3971 20.9812 13.3293 20.9971Z" fill="#335F8A"/>
  <path d="M13.7517 20.8775C13.8393 20.8496 13.923 20.8178 14.0106 20.7859C13.927 20.8178 13.8393 20.8456 13.7517 20.8775Z" fill="#335F8A"/>
  <path d="M14.0107 20.782C14.0944 20.7502 14.178 20.7143 14.2617 20.6785C14.182 20.7183 14.0944 20.7502 14.0107 20.782Z" fill="#335F8A"/>
  <path d="M18.0059 14.8904C18.0059 16.8343 17.0818 18.6507 15.6517 19.8258C13.8313 20.7341 12.8872 19.539 12.4212 18.4157C12.222 17.9258 12.0826 17.4119 12.0029 16.8861L17.8267 13.4404C17.9462 13.9145 18.0059 14.4044 18.0059 14.8904Z" fill="#4B6B9A"/>
</svg>
